<svg width="21" height="21" viewBox="0 0 21 21" fill="none" xmlns="http://www.w3.org/2000/svg">
<g clip-path="url(#clip0_666_37580)">
<path d="M8.24519 11.4091C7.90368 11.4772 7.5506 11.4598 7.21747 11.3583C6.88435 11.2567 6.58155 11.0743 6.3361 10.8273L4.1361 8.55453C3.84309 8.26606 3.6104 7.92219 3.45157 7.54293C3.29273 7.16368 3.21094 6.75661 3.21094 6.34544C3.21094 5.93426 3.29273 5.52719 3.45157 5.14794C3.6104 4.76868 3.84309 4.42481 4.1361 4.13634V4.13634C4.42456 3.84334 4.76844 3.61064 5.14769 3.45181C5.52695 3.29298 5.93402 3.21118 6.34519 3.21118C6.75637 3.21118 7.16343 3.29298 7.54269 3.45181C7.92195 3.61064 8.26582 3.84334 8.55428 4.13634L10.7906 6.37271C11.0342 6.60621 11.2176 6.89518 11.3253 7.21496C11.4329 7.53474 11.4616 7.87581 11.4088 8.20907M7.77246 7.77271L13.227 13.2273L7.77246 7.77271ZM12.6816 9.59089C13.026 9.53364 13.3792 9.55991 13.7114 9.66748C14.0436 9.77505 14.3451 9.96078 14.5906 10.2091L16.8634 12.5C17.4385 13.0805 17.7612 13.8646 17.7612 14.6818C17.7612 15.499 17.4385 16.2831 16.8634 16.8636C16.2825 17.4415 15.4964 17.7659 14.677 17.7659C13.8576 17.7659 13.0715 17.4415 12.4906 16.8636L10.227 14.5909C9.97835 14.3509 9.79081 14.0547 9.6801 13.7273C9.56938 13.3999 9.53871 13.0508 9.59065 12.7091L12.6816 9.59089Z" stroke="#242533" stroke-width="1.5" stroke-linecap="round" stroke-linejoin="round"/>
</g>
<defs>
<clipPath id="clip0_666_37580">
<rect width="20" height="20" fill="white" transform="translate(0.5 0.5)"/>
</clipPath>
</defs>
</svg>
