<svg width="20" height="20" viewBox="0 0 20 20" fill="none" xmlns="http://www.w3.org/2000/svg">
<path d="M10 2.5C14.1421 2.5 17.5 5.85786 17.5 10C17.5 14.1421 14.1421 17.5 10 17.5C5.85786 17.5 2.5 14.1421 2.5 10" stroke="#CCA422" stroke-width="1.5" stroke-linecap="round" stroke-linejoin="round"/>
<path d="M12.9166 10.0002H9.58325V5.8335" stroke="#CCA422" stroke-width="1.5" stroke-linecap="round" stroke-linejoin="round"/>
<path d="M3.44723 6.2596L3.44759 6.25924C3.52884 6.1763 3.66192 6.1749 3.7449 6.25609C3.82789 6.33729 3.82938 6.47037 3.74823 6.5534C3.66708 6.63644 3.534 6.63801 3.45092 6.55691C3.36784 6.47582 3.36619 6.34274 3.44723 6.2596" stroke="#CCA422" stroke-width="1.5" stroke-linecap="round" stroke-linejoin="round"/>
<path d="M6.44991 3.8462L6.44955 3.84656C6.3683 3.92577 6.23824 3.92415 6.15898 3.84295C6.07973 3.76175 6.08126 3.63169 6.16241 3.55238C6.24356 3.47307 6.37363 3.47453 6.45298 3.55563C6.53234 3.63673 6.53097 3.7668 6.44991 3.8462" stroke="#CCA422" stroke-width="1.5" stroke-linecap="round" stroke-linejoin="round"/>
</svg>
