<svg width="10" height="11" viewBox="0 0 10 11" fill="none" xmlns="http://www.w3.org/2000/svg">
<path fill-rule="evenodd" clip-rule="evenodd" d="M8.83552 1.65752C9.03435 1.65752 9.19988 1.8226 9.19988 2.03267V2.22689C9.19988 2.43184 9.03435 2.60204 8.83552 2.60204H0.364736C0.165406 2.60204 -0.00012207 2.43184 -0.00012207 2.22689V2.03267C-0.00012207 1.8226 0.165406 1.65752 0.364736 1.65752H1.85499C2.15771 1.65752 2.42117 1.44234 2.48927 1.13874L2.56731 0.79017C2.6886 0.315352 3.08775 0 3.54457 0H5.65518C6.10703 0 6.51066 0.315352 6.62748 0.765126L6.71099 1.13823C6.77859 1.44234 7.04204 1.65752 7.34526 1.65752H8.83552ZM8.07838 8.75748C8.23397 7.30747 8.50637 3.86262 8.50637 3.82786C8.51631 3.72258 8.48201 3.62291 8.41391 3.54267C8.34084 3.46753 8.24838 3.42307 8.14648 3.42307H1.05709C0.954696 3.42307 0.857268 3.46753 0.789664 3.54267C0.721067 3.62291 0.687265 3.72258 0.692236 3.82786C0.69315 3.83425 0.702924 3.95559 0.719265 4.15846C0.791859 5.05967 0.994047 7.56973 1.1247 8.75748C1.21716 9.63249 1.79129 10.1824 2.6229 10.2024C3.26464 10.2172 3.92576 10.2223 4.60179 10.2223C5.23855 10.2223 5.88526 10.2172 6.54687 10.2024C7.40732 10.1876 7.98095 9.64732 8.07838 8.75748Z" fill="#EB5757"/>
</svg>
