<svg width="4" height="18" viewBox="0 0 4 18" fill="none" xmlns="http://www.w3.org/2000/svg">
<path id="options" fill-rule="evenodd" clip-rule="evenodd" d="M2 4C0.89543 4 -1.35705e-07 3.10457 -8.74228e-08 2C-3.91405e-08 0.89543 0.895431 -1.35705e-07 2 -8.74228e-08C3.10457 -3.91405e-08 4 0.895431 4 2C4 3.10457 3.10457 4 2 4ZM2 11C0.89543 11 -2.03266e-07 10.1046 -1.54984e-07 9C-1.06702e-07 7.89543 0.89543 7 2 7C3.10457 7 4 7.89543 4 9C4 10.1046 3.10457 11 2 11ZM1.58735e-08 16C-3.24088e-08 17.1046 0.89543 18 2 18C3.10457 18 4 17.1046 4 16C4 14.8954 3.10457 14 2 14C0.89543 14 6.41558e-08 14.8954 1.58735e-08 16Z" fill="#6C6D79"/>
</svg>
