<svg width="21" height="21" viewBox="0 0 21 21" fill="none" xmlns="http://www.w3.org/2000/svg">
<g id="icon set to optiont">
<path id="Vector" d="M14.6641 2.99993C14.8829 2.78106 15.1428 2.60744 15.4287 2.48899C15.7147 2.37054 16.0212 2.30957 16.3307 2.30957C16.6403 2.30957 16.9468 2.37054 17.2327 2.48899C17.5187 2.60744 17.7785 2.78106 17.9974 2.99993C18.2163 3.2188 18.3899 3.47863 18.5083 3.7646C18.6268 4.05057 18.6878 4.35706 18.6878 4.66659C18.6878 4.97612 18.6268 5.28262 18.5083 5.56859C18.3899 5.85455 18.2163 6.11439 17.9974 6.33326L6.7474 17.5833L2.16406 18.8333L3.41406 14.2499L14.6641 2.99993Z" stroke="#242424" stroke-width="1.5" stroke-linecap="round" stroke-linejoin="round"/>
</g>
</svg>
