<svg width="17" height="17" viewBox="0 0 17 17" fill="none" xmlns="http://www.w3.org/2000/svg">
<g id="Group">
<path id="Path" d="M7.66667 1.83337H5.16667C2.86548 1.83337 1 3.69885 1 6.00004V11.8334C1 14.1346 2.86548 16 5.16667 16H11.8333C14.1345 16 16 14.1346 16 11.8334V6.83337" stroke="#323232" stroke-width="1.5" stroke-linecap="round" stroke-linejoin="round"/>
<path id="Path_2" d="M5.16406 11.8334H11.8307" stroke="#323232" stroke-width="1.5" stroke-linecap="round" stroke-linejoin="round"/>
<path id="Path_3" fill-rule="evenodd" clip-rule="evenodd" d="M8.47353 5.33337L12.4408 1.36612C12.9289 0.877961 13.7204 0.877961 14.2086 1.36612L14.7978 1.95537C15.286 2.44353 15.286 3.23499 14.7978 3.72314L10.8306 7.69042C10.5118 8.00916 10.0983 8.21592 9.65208 8.27967L8.13965 8.49573C8.00982 8.51428 7.87884 8.47062 7.78611 8.37788C7.69337 8.28515 7.64971 8.15416 7.66825 8.02433L7.88431 6.51192C7.94804 6.06567 8.15479 5.65213 8.47353 5.33337Z" stroke="#323232" stroke-width="1.5" stroke-linecap="round" stroke-linejoin="round"/>
<path id="Path_4" d="M13.6773 4.84981L11.3203 2.4928" stroke="#323232" stroke-width="1.5" stroke-linecap="round" stroke-linejoin="round"/>
</g>
</svg>
