<svg width="12" height="12" viewBox="0 0 12 12" fill="none" xmlns="http://www.w3.org/2000/svg">
<g id="Group 1087">
<path id="Union" fill-rule="evenodd" clip-rule="evenodd" d="M10.9958 1.21591C11.2301 0.9816 11.2301 0.601701 10.9958 0.367386C10.7615 0.133072 10.3816 0.133072 10.1473 0.367386L5.68148 4.83319L1.21567 0.367386C0.981356 0.133072 0.601457 0.133072 0.367142 0.367386C0.132828 0.601701 0.132828 0.9816 0.367142 1.21591L4.83295 5.68172L0.367142 10.1475C0.132828 10.3818 0.132828 10.7617 0.367142 10.9961C0.601457 11.2304 0.981356 11.2304 1.21567 10.9961L5.68148 6.53025L10.1473 10.9961C10.3816 11.2304 10.7615 11.2304 10.9958 10.9961C11.2301 10.7617 11.2301 10.3818 10.9958 10.1475L6.53 5.68172L10.9958 1.21591Z" fill="#666666"/>
</g>
</svg>
